<svg width="25" height="25" viewBox="0 0 14 14" fill="none" xmlns="http://www.w3.org/2000/svg">
<g clip-path="url(#clip0_169_1341)">
<path d="M6.41663 2.3335H2.33329C2.02387 2.3335 1.72713 2.45641 1.50833 2.6752C1.28954 2.894 1.16663 3.19074 1.16663 3.50016V11.6668C1.16663 11.9762 1.28954 12.273 1.50833 12.4918C1.72713 12.7106 2.02387 12.8335 2.33329 12.8335H10.5C10.8094 12.8335 11.1061 12.7106 11.3249 12.4918C11.5437 12.273 11.6666 11.9762 11.6666 11.6668V7.5835" stroke="#595F69" stroke-linecap="round" stroke-linejoin="round"/>
<path d="M10.7916 1.45814C11.0237 1.22608 11.3384 1.0957 11.6666 1.0957C11.9948 1.0957 12.3096 1.22608 12.5416 1.45814C12.7737 1.6902 12.9041 2.00495 12.9041 2.33314C12.9041 2.66133 12.7737 2.97608 12.5416 3.20814L6.99996 8.74981L4.66663 9.33314L5.24996 6.99981L10.7916 1.45814Z" stroke="#595F69" stroke-linecap="round" stroke-linejoin="round"/>
</g>
<defs>
<clipPath id="clip0_169_1341">
<rect width="14" height="14" fill="white"/>
</clipPath>
</defs>
</svg>
