<svg width="24" height="24" viewBox="0 0 24 24" fill="none" xmlns="http://www.w3.org/2000/svg">
<path d="M4.95 19.5C4.55 19.5 4.20833 19.3583 3.925 19.075C3.64167 18.7917 3.5 18.45 3.5 18.05V3.95C3.5 3.55 3.64167 3.20833 3.925 2.925C4.20833 2.64167 4.55 2.5 4.95 2.5H19.05C19.45 2.5 19.7917 2.64167 20.075 2.925C20.3583 3.20833 20.5 3.55 20.5 3.95V9.75C20.3167 9.68333 20.1333 9.6125 19.95 9.5375C19.7667 9.4625 19.575 9.39167 19.375 9.325V3.95C19.375 3.85 19.3458 3.77083 19.2875 3.7125C19.2292 3.65417 19.15 3.625 19.05 3.625H4.95C4.85 3.625 4.77083 3.65417 4.7125 3.7125C4.65417 3.77083 4.625 3.85 4.625 3.95V13.75H8.875C9.14167 14.2333 9.47083 14.6458 9.8625 14.9875C10.2542 15.3292 10.7083 15.5667 11.225 15.7C11.2083 15.9167 11.2125 16.1167 11.2375 16.3C11.2625 16.4833 11.2917 16.675 11.325 16.875C10.725 16.775 10.1667 16.5542 9.65 16.2125C9.13333 15.8708 8.71667 15.425 8.4 14.875H4.625V18.05C4.625 18.15 4.65417 18.2292 4.7125 18.2875C4.77083 18.3458 4.85 18.375 4.95 18.375H11.875C11.975 18.575 12.0792 18.7667 12.1875 18.95C12.2958 19.1333 12.425 19.3167 12.575 19.5H4.95ZM4.95 18.375H4.625H11.875H4.95ZM17.2 20.125L17.125 19.15C16.7083 19.05 16.3417 18.9042 16.025 18.7125C15.7083 18.5208 15.425 18.3 15.175 18.05L14.325 18.475L13.675 17.475L14.45 16.875C14.3333 16.5083 14.275 16.1333 14.275 15.75C14.275 15.3667 14.3333 14.9917 14.45 14.625L13.675 14L14.325 12.975L15.175 13.425C15.425 13.175 15.7125 12.9542 16.0375 12.7625C16.3625 12.5708 16.725 12.425 17.125 12.325L17.2 11.35H18.35L18.425 12.325C18.825 12.425 19.1875 12.5708 19.5125 12.7625C19.8375 12.9542 20.125 13.175 20.375 13.425L21.225 12.975L21.9 14L21.1 14.625C21.2333 14.9917 21.2958 15.3667 21.2875 15.75C21.2792 16.1333 21.2167 16.5083 21.1 16.875L21.9 17.475L21.225 18.475L20.375 18.05C20.125 18.3 19.8417 18.5208 19.525 18.7125C19.2083 18.9042 18.8417 19.05 18.425 19.15L18.35 20.125H17.2ZM17.775 18.2C18.475 18.2 19.0625 17.9625 19.5375 17.4875C20.0125 17.0125 20.25 16.425 20.25 15.725C20.25 15.025 20.0125 14.4375 19.5375 13.9625C19.0625 13.4875 18.475 13.25 17.775 13.25C17.0583 13.25 16.4667 13.4875 16 13.9625C15.5333 14.4375 15.3 15.025 15.3 15.725C15.3 16.425 15.5333 17.0125 16 17.4875C16.4667 17.9625 17.0583 18.2 17.775 18.2Z" fill="#3F434A"/>
</svg>
